<svg width="20" height="24" viewBox="0 0 20 24" fill="none" xmlns="http://www.w3.org/2000/svg">
<path d="M19.7076 14.7075L10.7076 23.7075C10.6147 23.8005 10.5044 23.8742 10.383 23.9246C10.2616 23.9749 10.1315 24.0008 10.0001 24.0008C9.86865 24.0008 9.73853 23.9749 9.61713 23.9246C9.49573 23.8742 9.38544 23.8005 9.29257 23.7075L0.292568 14.7075C0.104927 14.5199 -0.000488281 14.2654 -0.000488281 14C-0.000488281 13.7346 0.104927 13.4801 0.292568 13.2925C0.480208 13.1049 0.734704 12.9994 1.00007 12.9994C1.26543 12.9994 1.51993 13.1049 1.70757 13.2925L9.00007 20.5863V1C9.00007 0.734784 9.10542 0.48043 9.29296 0.292893C9.4805 0.105357 9.73485 0 10.0001 0C10.2653 0 10.5196 0.105357 10.7072 0.292893C10.8947 0.48043 11.0001 0.734784 11.0001 1V20.5863L18.2926 13.2925C18.4802 13.1049 18.7347 12.9994 19.0001 12.9994C19.2654 12.9994 19.5199 13.1049 19.7076 13.2925C19.8952 13.4801 20.0006 13.7346 20.0006 14C20.0006 14.2654 19.8952 14.5199 19.7076 14.7075Z" fill="black"/>
</svg>
